<svg xmlns="http://www.w3.org/2000/svg" xmlns:xlink="http://www.w3.org/1999/xlink" viewBox="0 0 359.2 505.34"><defs><style>.cls-1{fill:url(#linear-gradient);}.cls-2{fill:url(#linear-gradient-2);}.cls-3{fill:url(#linear-gradient-3);}.cls-4{fill:url(#linear-gradient-4);}.cls-5{fill:url(#linear-gradient-5);}.cls-6{fill:url(#linear-gradient-6);}.cls-7{fill:url(#linear-gradient-7);}.cls-8{fill:url(#linear-gradient-8);}.cls-9{font-size:50px;}.cls-10,.cls-9{fill:#2e3192;font-family:ConthraxSb-Regular, Conthrax;}.cls-10{font-size:40.35px;}</style><linearGradient id="linear-gradient" x1="34.04" y1="202.85" x2="145.75" y2="202.85" gradientUnits="userSpaceOnUse"><stop offset="0" stop-color="#29abe2"/><stop offset="0.03" stop-color="#29a2dc"/><stop offset="0.09" stop-color="#2a88cb"/><stop offset="0.16" stop-color="#2c5fb0"/><stop offset="0.23" stop-color="#2e3192"/><stop offset="0.54" stop-color="#93278f"/><stop offset="0.8" stop-color="#f7931e"/><stop offset="0.99" stop-color="#fcee21"/></linearGradient><linearGradient id="linear-gradient-2" x1="79.7" y1="173.56" x2="158.69" y2="173.56" xlink:href="#linear-gradient"/><linearGradient id="linear-gradient-3" x1="176.98" y1="173.56" x2="255.97" y2="173.56" xlink:href="#linear-gradient"/><linearGradient id="linear-gradient-4" x1="189.92" y1="202.85" x2="301.63" y2="202.85" xlink:href="#linear-gradient"/><linearGradient id="linear-gradient-5" x1="34.04" y1="300.13" x2="145.76" y2="300.13" xlink:href="#linear-gradient"/><linearGradient id="linear-gradient-6" x1="79.69" y1="329.42" x2="158.69" y2="329.42" xlink:href="#linear-gradient"/><linearGradient id="linear-gradient-7" x1="176.98" y1="329.43" x2="255.97" y2="329.43" xlink:href="#linear-gradient"/><linearGradient id="linear-gradient-8" x1="189.91" y1="300.13" x2="301.63" y2="300.13" xlink:href="#linear-gradient"/></defs><title>wheel_logo</title><g id="Layer_2" data-name="Layer 2"><g id="Layer_1-2" data-name="Layer 1"><path class="cls-1" d="M145.75,242.34H34a133.56,133.56,0,0,1,32.72-79Z"/><path class="cls-2" d="M158.69,117.7V229.41l-79-79A133.54,133.54,0,0,1,158.69,117.7Z"/><path class="cls-3" d="M256,150.42l-79,79V117.7A133.5,133.5,0,0,1,256,150.42Z"/><path class="cls-4" d="M301.63,242.34H189.92l79-79A133.56,133.56,0,0,1,301.63,242.34Z"/><path class="cls-5" d="M145.76,260.63l-79,79a133.5,133.5,0,0,1-32.72-79Z"/><path class="cls-6" d="M158.69,273.56V385.28a133.56,133.56,0,0,1-79-32.72Z"/><path class="cls-7" d="M256,352.56a133.5,133.5,0,0,1-79,32.72V273.57Z"/><path class="cls-8" d="M301.63,260.63a133.5,133.5,0,0,1-32.72,79l-79-79Z"/><text class="cls-9" transform="matrix(0.68, -0.73, 0.73, 0.68, 36.71, 169.55)">w</text><text class="cls-9" transform="translate(75.3 129.1) rotate(-28.89)">h</text><text class="cls-9" transform="translate(112.07 108.86) rotate(-13.9)">e</text><text class="cls-9" transform="translate(148.5 99.61) rotate(0.15)">e</text><text class="cls-9" transform="matrix(0.99, 0.17, -0.17, 0.99, 186.56, 100.67)">l</text><text class="cls-10" transform="matrix(0.95, 0.31, -0.31, 0.95, 101.93, 412.97)">o</text><text class="cls-10" transform="translate(138.44 423.89) rotate(7.91)">f</text><text class="cls-10" transform="matrix(1, 0.03, -0.03, 1, 159.91, 426.6)"> </text><text class="cls-10" transform="translate(175.98 427.56) rotate(-6.58)">s</text><text class="cls-10" transform="matrix(0.95, -0.33, 0.33, 0.95, 211.22, 423.28)">u</text><text class="cls-10" transform="translate(247.93 409.86) rotate(-31.18)">c</text><text class="cls-10" transform="translate(275.99 392.6) rotate(-42.57)">e</text><text class="cls-10" transform="translate(301.78 368.42) rotate(-54.21)">s</text><text class="cls-10" transform="translate(322.1 339.61) rotate(-66.05)">s</text></g></g></svg>