<svg xmlns="http://www.w3.org/2000/svg" viewBox="0 0 359.2 505.34"><defs><style>.cls-1{fill:#8cc63f;}.cls-2{fill:#fcee21;}.cls-3{fill:#f7931e;}.cls-4{fill:#ed1c24;}.cls-5{fill:#29abe2;}.cls-10,.cls-6,.cls-9{fill:#2e3192;}.cls-7{fill:#93278f;}.cls-8{fill:#f0f;}.cls-9{font-size:50px;}.cls-10,.cls-9{font-family:ConthraxSb-Regular, Conthrax;}.cls-10{font-size:40.35px;}</style></defs><title>wheel_logo_1</title><g id="Layer_2" data-name="Layer 2"><g id="Layer_1-2" data-name="Layer 1"><path class="cls-1" d="M145.75,242.34H34a133.56,133.56,0,0,1,32.72-79Z"/><path class="cls-2" d="M158.69,117.7V229.41l-79-79A133.54,133.54,0,0,1,158.69,117.7Z"/><path class="cls-3" d="M256,150.42l-79,79V117.7A133.5,133.5,0,0,1,256,150.42Z"/><path class="cls-4" d="M301.63,242.34H189.92l79-79A133.56,133.56,0,0,1,301.63,242.34Z"/><path class="cls-5" d="M145.76,260.63l-79,79a133.5,133.5,0,0,1-32.72-79Z"/><path class="cls-6" d="M158.69,273.56V385.28a133.56,133.56,0,0,1-79-32.72Z"/><path class="cls-7" d="M256,352.56a133.5,133.5,0,0,1-79,32.72V273.57Z"/><path class="cls-8" d="M301.63,260.63a133.5,133.5,0,0,1-32.72,79l-79-79Z"/><text class="cls-9" transform="matrix(0.68, -0.73, 0.73, 0.68, 36.71, 169.55)">w</text><text class="cls-9" transform="translate(75.3 129.1) rotate(-28.89)">h</text><text class="cls-9" transform="translate(112.07 108.86) rotate(-13.9)">e</text><text class="cls-9" transform="translate(148.5 99.61) rotate(0.15)">e</text><text class="cls-9" transform="matrix(0.99, 0.17, -0.17, 0.99, 186.56, 100.67)">l</text><text class="cls-10" transform="matrix(0.95, 0.31, -0.31, 0.95, 101.93, 412.97)">o</text><text class="cls-10" transform="translate(138.44 423.89) rotate(7.91)">f</text><text class="cls-10" transform="matrix(1, 0.03, -0.03, 1, 159.91, 426.6)"> </text><text class="cls-10" transform="translate(175.98 427.56) rotate(-6.58)">s</text><text class="cls-10" transform="matrix(0.95, -0.33, 0.33, 0.95, 211.22, 423.28)">u</text><text class="cls-10" transform="translate(247.93 409.86) rotate(-31.18)">c</text><text class="cls-10" transform="translate(275.99 392.6) rotate(-42.57)">e</text><text class="cls-10" transform="translate(301.78 368.42) rotate(-54.21)">s</text><text class="cls-10" transform="translate(322.1 339.61) rotate(-66.05)">s</text></g></g></svg>